<?xml version="1.0" encoding="UTF-8" standalone="no"?>
<!-- Created with Inkscape (http://www.inkscape.org/) -->

<svg
   xmlns:dc="http://purl.org/dc/elements/1.1/"
   xmlns:cc="http://creativecommons.org/ns#"
   xmlns:rdf="http://www.w3.org/1999/02/22-rdf-syntax-ns#"
   xmlns:svg="http://www.w3.org/2000/svg"
   xmlns="http://www.w3.org/2000/svg"
   xmlns:sodipodi="http://sodipodi.sourceforge.net/DTD/sodipodi-0.dtd"
   xmlns:inkscape="http://www.inkscape.org/namespaces/inkscape"
   width="33.304211mm"
   height="32.179379mm"
   viewBox="0 0 118.00705 114.02142"
   id="svg2"
   version="1.1"
   inkscape:version="0.91 r13725"
   sodipodi:docname="kbeatbox-logo.svg">
  <sodipodi:namedview
     id="base"
     pagecolor="#ffffff"
     bordercolor="#666666"
     borderopacity="1.0"
     inkscape:pageopacity="0.0"
     inkscape:pageshadow="2"
     inkscape:zoom="15.839192"
     inkscape:cx="62.516406"
     inkscape:cy="41.124517"
     inkscape:document-units="px"
     inkscape:current-layer="layer1"
     showgrid="false"
     inkscape:window-width="3710"
     inkscape:window-height="2112"
     inkscape:window-x="130"
     inkscape:window-y="48"
     inkscape:window-maximized="1"
     fit-margin-top="2"
     fit-margin-bottom="2"
     fit-margin-right="2"
     fit-margin-left="2" />
  <defs
     id="defs4">
    <inkscape:perspective
       id="perspective4136"
       inkscape:persp3d-origin="372.04726 : 350.78738 : 1"
       inkscape:vp_z="744.09454 : 526.18108 : 1"
       inkscape:vp_y="0 : 999.99995 : 0"
       inkscape:vp_x="0 : 526.18107 : 1"
       sodipodi:type="inkscape:persp3d" />
  </defs>
  <metadata
     id="metadata7">
    <rdf:RDF>
      <cc:Work
         rdf:about="">
        <dc:format>image/svg+xml</dc:format>
        <dc:type
           rdf:resource="http://purl.org/dc/dcmitype/StillImage" />
        <dc:title />
      </cc:Work>
    </rdf:RDF>
  </metadata>
  <g
     id="layer1"
     inkscape:groupmode="layer"
     inkscape:label="Calque 1"
     transform="translate(-259.08858,-630.60359)">
    <path
       d="m 266.1752,647.45389 49.49747,19.15816 54.33635,-13.81208 -52.59187,-15.10976 z"
       style="color:#000000;clip-rule:nonzero;visibility:visible;isolation:auto;mix-blend-mode:normal;color-interpolation:sRGB;color-interpolation-filters:linearRGB;solid-color:#000000;solid-opacity:1;fill:#045184;fill-opacity:1;fill-rule:evenodd;stroke:none;stroke-width:1px;stroke-linecap:butt;stroke-linejoin:round;stroke-miterlimit:4;stroke-dasharray:none;stroke-dashoffset:0;stroke-opacity:1;color-rendering:auto;image-rendering:auto;shape-rendering:auto;text-rendering:auto"
       id="path4313"
       inkscape:connector-curvature="0" />
    <path
       d="m 315.67267,737.5384 0,-70.92635 54.33635,-13.81208 0,62.34559 z"
       style="color:#000000;clip-rule:nonzero;visibility:visible;isolation:auto;mix-blend-mode:normal;color-interpolation:sRGB;color-interpolation-filters:linearRGB;solid-color:#000000;solid-opacity:1;fill:#73b4de;fill-opacity:1;fill-rule:evenodd;stroke:none;stroke-width:1px;stroke-linecap:butt;stroke-linejoin:round;stroke-miterlimit:4;stroke-dasharray:none;stroke-dashoffset:0;stroke-opacity:1;color-rendering:auto;image-rendering:auto;shape-rendering:auto;text-rendering:auto"
       id="path4315"
       inkscape:connector-curvature="0" />
    <path
       d="m 266.1752,706.47821 49.49747,31.06019 0,-70.92635 -49.49747,-19.15816 z"
       style="color:#000000;clip-rule:nonzero;visibility:visible;isolation:auto;mix-blend-mode:normal;color-interpolation:sRGB;color-interpolation-filters:linearRGB;solid-color:#000000;solid-opacity:1;fill:#023250;fill-opacity:1;fill-rule:evenodd;stroke:none;stroke-width:1px;stroke-linecap:butt;stroke-linejoin:round;stroke-miterlimit:4;stroke-dasharray:none;stroke-dashoffset:0;stroke-opacity:1;color-rendering:auto;image-rendering:auto;shape-rendering:auto;text-rendering:auto"
       id="path4317"
       inkscape:connector-curvature="0" />
    <g
       id="g4"
       transform="matrix(0.04820608,0,0,0.04820626,371.55554,646.35022)"
       style="fill:#fefefe;stroke:none;stroke-width:10.37211609;stroke-miterlimit:4;stroke-dasharray:none">
      <path
         d="m -935.21399,26.649805 c -41.77461,8.960817 -91.34111,13.459958 -135.69121,13.319135 0,0 -39.4634,23.873165 -39.4634,23.873165 19.3587,2.343246 36.5619,5.662546 50.2535,10.116368 13.5465,4.40666 22.5015,9.546912 27.5972,15.117128 0,0 98.92169,-5.619487 98.92169,-5.619487 7.36735,-11.950283 33.39402,-24.167853 75.2712,-33.441516 75.93923,-16.816671 178.16978,-18.135505 230.81507,-3.010452 53.93206,15.494742 37.90595,42.969643 -38.8157,61.354644 -78.90434,18.90804 -189.00156,20.43549 -242.10905,3.30924 -9.36375,-3.01964 -16.1552,-6.42056 -20.69636,-10.04857 0,0 -100.34825,5.78296 -100.34825,5.78296 -7.1492,14.17559 -34.5979,29.36178 -79.8606,42.47824 0,0 53.3356,18.59726 53.3356,18.59726 79.81527,-13.43052 171.36816,-12.63771 219.43206,3.28417 56.50053,18.71663 33.96662,52.01555 -54.00469,74.37741 -90.73757,23.06504 -212.73657,24.93127 -267.89017,4.03188 -46.2324,-17.51886 -28.5683,-44.93601 34.3484,-65.49262 0,0 -53.7063,-19.27434 -53.7063,-19.27434 -108.6754,19.00834 -233.45,18.44559 -288.5791,-2.89222 -53.7361,-20.79868 -20.6023,-53.58885 68.305,-76.957545 0,0 -49.0358,-17.587439 -49.0358,-17.587439 -78.5711,11.530429 -163.7913,10.75366 -200.1685,-3.030731 -41.0452,-15.553301 -3.1745,-41.36976 81.4716,-57.4982221 82.48,-15.7157452 182.0457,-16.948829 224.72,-2.8123434 37.7804,12.5153105 20.0869,33.3252295 -39.7156,49.8358005 0,0 49.4117,17.218844 49.4117,17.218844 52.4813,-8.49023 108.1182,-12.48039 157.212,-11.835211 0,0 40.7963,-23.879998 40.7963,-23.879998 -11.3589,-1.640597 -21.4284,-3.757389 -29.6263,-6.401097 -45.628,-14.714231 -18.2558,-39.1595799 58.2421,-54.445178 74.5913,-14.904619 171.12361,-16.074489 217.79252,-2.66646 47.74174,13.716258 27.34529,37.989227 -48.21491,54.197185 0,0 0,0 0,0 0,0 0,0 0,0 m 217.76804,66.174697 c 37.37719,-8.77128 46.10752,-22.117219 20.21394,-29.771574 -25.58848,-7.564163 -76.08091,-6.904016 -113.26684,1.494938 -37.6783,8.510161 -48.25708,21.904432 -22.86934,29.841192 25.69788,8.033712 78.03918,7.325432 115.92224,-1.564556 0,0 0,0 0,0 0,0 0,0 0,0 M -1072.1384,229.14287 c 26.7396,9.77034 84.61794,8.90703 128.09757,-1.90275 42.84006,-10.65077 54.9377,-26.82792 27.88004,-36.09132 -26.70723,-9.14343 -82.33256,-8.34589 -124.86221,1.80832 -43.1495,10.30218 -57.4995,26.54533 -31.1154,36.18575 0,0 0,0 0,0 0,0 0,0 0,0 M -1417.2022,19.613438 c -20.6286,-7.062386 -69.7789,-6.445923 -110.2401,1.39543 -40.9787,7.94164 -58.3952,20.434457 -38.1479,27.832576 20.486,7.485349 71.3874,6.824448 112.7547,-1.459208 40.8339,-8.176842 56.4996,-20.62507 35.6333,-27.768798 0,0 0,0 0,0 0,0 0,0 0,0 m 102.4589,76.587393 c -58.7815,12.496349 -81.8572,32.308419 -49.9179,44.135739 32.5058,12.03708 108.6534,10.96912 168.1609,-2.337 58.3616,-13.0499 77.5873,-32.76003 44.3822,-43.988364 -32.6459,-11.039248 -104.9411,-10.073412 -162.6252,2.189625 0,0 0,0 0,0 0,0 0,0 0,0 m 252.2769,-108.220097 c -36.9881,7.5235546 -49.3689,19.3534645 -26.9693,26.356065 22.6565,7.082909 71.924,6.458171 109.15909,-1.380486 36.76789,-7.7403114 47.51053,-19.5291773 24.61477,-26.297352 -22.64195,-6.693145 -70.27106,-6.109288 -106.80456,1.321773 0,0 0,0 0,0 0,0 0,0 0,0"
         id="path6"
         inkscape:connector-curvature="0"
         style="fill:#fefefe;stroke:none;stroke-width:10.37211609;stroke-miterlimit:4;stroke-dasharray:none" />
    </g>
    <g
       id="g4165"
       transform="translate(-0.65493,0.46103158)">
      <path
         inkscape:connector-curvature="0"
         id="path4387"
         d="m 365.40453,685.40838 c 10e-6,6.66705 -2.04199,13.82511 -5.74233,20.00906 -3.78681,6.32844 -9.0665,11.23203 -14.75583,13.57668 -5.887,2.42612 -11.72829,1.91685 -16.16349,-1.54943 -4.54884,-3.55511 -7.15586,-9.85361 -7.15586,-17.43826 0,-15.79421 10.82537,-31.34971 23.31935,-34.52563 5.68933,-1.44621 10.96901,-0.0606 14.75583,3.74471 3.70033,3.71837 5.74233,9.51582 5.74233,16.18287 0,0 0,0 0,0"
         style="color:#000000;clip-rule:nonzero;display:inline;overflow:visible;visibility:visible;opacity:1;isolation:auto;mix-blend-mode:normal;color-interpolation:sRGB;color-interpolation-filters:linearRGB;solid-color:#000000;solid-opacity:1;fill:#000000;fill-opacity:1;fill-rule:evenodd;stroke:none;stroke-width:0.5;stroke-linecap:butt;stroke-linejoin:round;stroke-miterlimit:4;stroke-dasharray:none;stroke-dashoffset:0;stroke-opacity:1;color-rendering:auto;image-rendering:auto;shape-rendering:auto;text-rendering:auto;enable-background:accumulate" />
      <path
         style="color:#000000;clip-rule:nonzero;display:inline;overflow:visible;visibility:visible;opacity:1;isolation:auto;mix-blend-mode:normal;color-interpolation:sRGB;color-interpolation-filters:linearRGB;solid-color:#000000;solid-opacity:1;fill:#fefefe;fill-opacity:1;fill-rule:evenodd;stroke:none;stroke-width:0.5;stroke-linecap:butt;stroke-linejoin:round;stroke-miterlimit:4;stroke-dasharray:none;stroke-dashoffset:0;stroke-opacity:1;color-rendering:auto;image-rendering:auto;shape-rendering:auto;text-rendering:auto;enable-background:accumulate"
         d="m 352.71913,686.83033 c 0,4.4295 -1.35667,9.18523 -3.81513,13.29376 -2.51591,4.20453 -6.02366,7.46241 -9.80359,9.02017 -3.91123,1.61189 -7.79212,1.27352 -10.73881,-1.02942 -3.0222,-2.36196 -4.75426,-6.54662 -4.75426,-11.58575 0,-10.49347 7.19224,-20.82835 15.49307,-22.93838 3.77993,-0.96085 7.28768,-0.0403 9.80359,2.48793 2.45846,2.47044 3.81513,6.32218 3.81513,10.75169 0,0 0,0 0,0"
         id="path4467"
         inkscape:connector-curvature="0" />
    </g>
    <g
       transform="matrix(0,-1,1,0,-179.48727,1159.5668)"
       id="text4531"
       style="font-style:normal;font-weight:normal;font-size:12.5px;line-height:72.00000286%;font-family:sans-serif;text-align:start;letter-spacing:0px;word-spacing:0px;text-anchor:start;fill:#fefefe;fill-opacity:1;stroke:none;stroke-width:0.5;stroke-linecap:butt;stroke-linejoin:miter;stroke-miterlimit:4;stroke-dasharray:none;stroke-opacity:1">
      <path
         inkscape:connector-curvature="0"
         id="path4542"
         style="font-style:normal;font-variant:normal;font-weight:bold;font-stretch:normal;line-height:72.00000286%;font-family:sans-serif;-inkscape-font-specification:'sans-serif Bold';fill:#fefefe;stroke:none;stroke-width:0.5;stroke-miterlimit:4;stroke-dasharray:none"
         d="m 491.01798,451.25766 c -0.19346,0.43797 -0.20972,0.76984 -0.048,0.99477 0.16205,0.22543 0.49923,0.33593 1.01151,0.33113 0.50599,-0.005 0.93993,-0.12258 1.30119,-0.35325 0.36726,-0.23036 0.64507,-0.56534 0.83333,-1.00402 0,0 0.65571,-1.52791 0.65571,-1.52791 0,0 -3.07992,0.0338 -3.07992,0.0338 0,0 -0.67381,1.52546 -0.67381,1.52546 0,0 0,0 0,0 m -6.41149,0.15795 c -0.26045,0.55713 -0.29721,0.97511 -0.10901,1.25262 0.18645,0.28308 0.60309,0.42196 1.2499,0.41605 0.6342,-0.006 1.17272,-0.15113 1.61458,-0.43564 0.44754,-0.28402 0.7987,-0.70833 1.05325,-1.27139 0,0 0.73103,-1.61703 0.73103,-1.61703 0,0 -3.78528,0.0416 -3.78528,0.0416 0,0 -0.75447,1.61382 -0.75447,1.61382 0,0 0,0 0,0 m 4.07129,2.555 c -0.50978,0.612 -1.16127,1.08981 -1.95385,1.43179 -0.79415,0.34266 -1.65799,0.51774 -2.5896,0.52475 -1.42523,0.0107 -2.31555,-0.34342 -2.67093,-1.05887 -0.35307,-0.71078 -0.18248,-1.78913 0.50401,-3.2259 0,0 2.15498,-4.51028 2.15498,-4.51028 0,0 14.34892,-0.17938 14.34892,-0.17938 0,0 -1.718,4.10306 -1.718,4.10306 -0.63057,1.506 -1.40311,2.60985 -2.31506,3.30012 -0.91845,0.69857 -2.06815,1.05449 -3.44414,1.0652 -0.72371,0.006 -1.285,-0.11626 -1.68354,-0.36516 -0.3909,-0.2483 -0.6016,-0.61041 -0.63279,-1.08533 0,0 0,0 0,0" />
      <path
         inkscape:connector-curvature="0"
         id="path4544"
         style="font-style:normal;font-variant:normal;font-weight:bold;font-stretch:normal;line-height:72.00000286%;font-family:sans-serif;-inkscape-font-specification:'sans-serif Bold';fill:#fefefe;stroke:none;stroke-width:0.5;stroke-miterlimit:4;stroke-dasharray:none"
         d="m 493.69665,458.35596 c 0,0 -3.43845,8.21201 -3.43845,8.21201 0,0 -3.02932,0.005 -3.02932,0.005 0,0 2.24679,-5.22135 2.24679,-5.22135 0,0 -2.83031,0.0126 -2.83031,0.0126 0,0 -2.16098,4.89628 -2.16098,4.89628 0,0 -3.00573,0.005 -3.00573,0.005 0,0 2.21372,-4.8882 2.21372,-4.8882 0,0 -3.45793,0.0153 -3.45793,0.0153 0,0 -2.50566,5.3728 -2.50566,5.3728 0,0 -2.98883,0.004 -2.98883,0.004 0,0 3.97599,-8.32155 3.97599,-8.32155 0,0 14.98071,-0.0916 14.98071,-0.0916 0,0 0,0 0,0" />
      <path
         inkscape:connector-curvature="0"
         id="path4546"
         style="font-style:normal;font-variant:normal;font-weight:bold;font-stretch:normal;line-height:72.00000286%;font-family:sans-serif;-inkscape-font-specification:'sans-serif Bold';fill:#fefefe;stroke:none;stroke-width:0.5;stroke-miterlimit:4;stroke-dasharray:none"
         d="m 472.62482,477.27346 c 0,0 2.4218,-5.18466 2.4218,-5.18466 0,0 -2.4645,-0.80351 -2.4645,-0.80351 0,0 1.53151,-3.20536 1.53151,-3.20536 0,0 13.5705,4.63564 13.5705,4.63564 0,0 -1.66759,3.98269 -1.66759,3.98269 0,0 -18.33527,4.84428 -18.33527,4.84428 0,0 1.65125,-3.45599 1.65125,-3.45599 0,0 3.2923,-0.81309 3.2923,-0.81309 0,0 0,0 0,0 m 4.9581,-4.36503 c 0,0 -1.60952,3.52818 -1.60952,3.52818 0,0 7.13306,-1.75172 7.13306,-1.75172 0,0 -5.52354,-1.77646 -5.52354,-1.77646 0,0 0,0 0,0" />
      <path
         inkscape:connector-curvature="0"
         id="path4548"
         style="font-style:normal;font-variant:normal;font-weight:bold;font-stretch:normal;line-height:72.00000286%;font-family:sans-serif;-inkscape-font-specification:'sans-serif Bold';fill:#fefefe;stroke:none;stroke-width:0.5;stroke-miterlimit:4;stroke-dasharray:none"
         d="m 484.47679,480.37562 c 0,0 -5.45951,13.03886 -5.45951,13.03886 0,0 -3.31912,-0.0456 -3.31912,-0.0456 0,0 2.0745,-4.82095 2.0745,-4.82095 0,0 -13.36832,-0.14692 -13.36832,-0.14692 0,0 1.72495,-3.61023 1.72495,-3.61023 0,0 13.20944,0.11775 13.20944,0.11775 0,0 1.95918,-4.55298 1.95918,-4.55298 0,0 3.17888,0.0201 3.17888,0.0201 0,0 0,0 0,0" />
      <path
         inkscape:connector-curvature="0"
         id="path4550"
         style="font-style:normal;font-variant:normal;font-weight:bold;font-stretch:normal;line-height:72.00000286%;font-family:sans-serif;-inkscape-font-specification:'sans-serif Bold';fill:#fefefe;stroke:none;stroke-width:0.5;stroke-miterlimit:4;stroke-dasharray:none"
         d="m 473.57493,457.66354 c -0.22841,0.45713 -0.27033,0.80404 -0.1249,1.03989 0.14575,0.23635 0.47662,0.35322 0.9926,0.35024 0.50965,-0.003 0.95549,-0.12444 1.33682,-0.36419 0.38735,-0.23941 0.69268,-0.58856 0.91583,-1.04647 0,0 0.77713,-1.59463 0.77713,-1.59463 0,0 -3.10202,0.0232 -3.10202,0.0232 0,0 -0.79546,1.59196 -0.79546,1.59196 0,0 0,0 0,0 m -6.46431,0.13972 c -0.30525,0.58141 -0.37462,1.01828 -0.20673,1.30918 0.1657,0.29675 0.57425,0.44363 1.22567,0.44004 0.63872,-0.004 1.19195,-0.15338 1.65864,-0.44912 0.47235,-0.2952 0.85852,-0.73744 1.15816,-1.32511 0,0 0.86036,-1.68743 0.86036,-1.68743 0,0 -3.812,0.0285 -3.812,0.0285 0,0 -0.8841,1.68392 -0.8841,1.68392 0,0 0,0 0,0 m 3.89984,2.68777 c -0.56037,0.63806 -1.25306,1.13523 -2.07732,1.48978 -0.82592,0.35525 -1.70904,0.53495 -2.64734,0.53854 -1.43546,0.005 -2.3041,-0.36853 -2.60619,-1.11828 -0.30008,-0.74479 -0.0446,-1.87175 0.75783,-3.37121 0,0 2.51786,-4.70508 2.51786,-4.70508 0,0 14.45011,-0.13125 14.45011,-0.13125 0,0 -2.04266,4.28167 -2.04266,4.28167 -0.75004,1.57217 -1.6123,2.72349 -2.58329,3.44183 -0.97827,0.72705 -2.16308,1.09477 -3.54914,1.10045 -0.72899,0.003 -1.28463,-0.12676 -1.66663,-0.38872 -0.37433,-0.26129 -0.55849,-0.64088 -0.55323,-1.13773 0,0 0,0 0,0" />
      <path
         inkscape:connector-curvature="0"
         id="path4552"
         style="font-style:normal;font-variant:normal;font-weight:bold;font-stretch:normal;line-height:72.00000286%;font-family:sans-serif;-inkscape-font-specification:'sans-serif Bold';fill:#fefefe;stroke:none;stroke-width:0.5;stroke-miterlimit:4;stroke-dasharray:none"
         d="m 470.45079,470.66938 c 0.47438,-0.9742 0.39349,-1.72477 -0.23767,-2.25507 -0.62798,-0.52763 -1.7448,-0.78972 -3.35061,-0.78826 -1.5961,10e-4 -2.96929,0.26493 -4.12434,0.79165 -1.15852,0.52831 -1.99216,1.27466 -2.5011,2.24317 -0.5156,0.9812 -0.4705,1.74648 0.14051,2.29247 0.61414,0.54879 1.73657,0.82637 3.36723,0.83064 1.64065,0.004 3.05131,-0.26756 4.22697,-0.81432 1.17206,-0.54509 1.99839,-1.31327 2.47901,-2.30028 0,0 0,0 0,0 m 2.89714,0.002 c -0.96088,2.01861 -2.44681,3.61935 -4.45735,4.78522 -2.02479,1.17413 -4.32264,1.75844 -6.87717,1.74673 -2.54007,-0.0116 -4.21891,-0.61111 -5.0357,-1.78925 -0.80844,-1.16607 -0.66721,-2.756 0.40531,-4.75601 1.05365,-1.96484 2.56351,-3.48876 4.53114,-4.58789 1.95151,-1.08638 4.13472,-1.63014 6.56454,-1.63677 2.4433,-0.007 4.09811,0.52931 4.96577,1.61602 0.87377,1.10305 0.84732,2.6391 -0.0965,4.62195 0,0 0,0 0,0" />
      <path
         inkscape:connector-curvature="0"
         id="path4554"
         style="font-style:normal;font-variant:normal;font-weight:bold;font-stretch:normal;line-height:72.00000286%;font-family:sans-serif;-inkscape-font-specification:'sans-serif Bold';fill:#fefefe;stroke:none;stroke-width:0.5;stroke-miterlimit:4;stroke-dasharray:none"
         d="m 457.39888,486.68528 c 0,0 -10.87382,4.81705 -10.87382,4.81705 0,0 2.03778,-3.80795 2.03778,-3.80795 0,0 7.20543,-3.18433 7.20543,-3.18433 0,0 -3.79927,-3.18069 -3.79927,-3.18069 0,0 1.9056,-3.56096 1.9056,-3.56096 0,0 5.6787,4.65601 5.6787,4.65601 0,0 10.00699,-4.40205 10.00699,-4.40205 0,0 -1.71288,3.5904 -1.71288,3.5904 0,0 -6.65554,2.94505 -6.65554,2.94505 0,0 3.77486,3.0932 3.77486,3.0932 0,0 -1.84619,3.86984 -1.84619,3.86984 0,0 -5.72166,-4.83557 -5.72166,-4.83557 0,0 0,0 0,0" />
    </g>
  </g>
</svg>
