<?xml version="1.0" encoding="UTF-8" standalone="no"?><svg xmlns="http://www.w3.org/2000/svg" xmlns:xlink="http://www.w3.org/1999/xlink" contentScriptType="application/ecmascript" contentStyleType="text/css" height="82px" preserveAspectRatio="none" style="width:258px;height:82px;" version="1.1" viewBox="0 0 258 82" width="258px" zoomAndPan="magnify"><defs/><g><text fill="#000000" font-family="Serif" font-size="10" lengthAdjust="spacingAndGlyphs" textLength="6" x="5" y="9.2822">1</text><line style="stroke: #C0C0C0; stroke-width: 1.0;" x1="0" x2="0" y1="0" y2="80"/><text fill="#000000" font-family="Serif" font-size="10" lengthAdjust="spacingAndGlyphs" textLength="6" x="21" y="9.2822">2</text><line style="stroke: #C0C0C0; stroke-width: 1.0;" x1="16" x2="16" y1="0" y2="80"/><text fill="#000000" font-family="Serif" font-size="10" lengthAdjust="spacingAndGlyphs" textLength="6" x="37" y="9.2822">3</text><line style="stroke: #C0C0C0; stroke-width: 1.0;" x1="32" x2="32" y1="0" y2="80"/><text fill="#000000" font-family="Serif" font-size="10" lengthAdjust="spacingAndGlyphs" textLength="6" x="53" y="9.2822">4</text><line style="stroke: #C0C0C0; stroke-width: 1.0;" x1="48" x2="48" y1="0" y2="80"/><text fill="#000000" font-family="Serif" font-size="10" lengthAdjust="spacingAndGlyphs" textLength="6" x="69" y="9.2822">5</text><line style="stroke: #C0C0C0; stroke-width: 1.0;" x1="64" x2="64" y1="0" y2="80"/><text fill="#000000" font-family="Serif" font-size="10" lengthAdjust="spacingAndGlyphs" textLength="6" x="85" y="9.2822">6</text><line style="stroke: #C0C0C0; stroke-width: 1.0;" x1="80" x2="80" y1="0" y2="80"/><text fill="#000000" font-family="Serif" font-size="10" lengthAdjust="spacingAndGlyphs" textLength="6" x="101" y="9.2822">7</text><line style="stroke: #C0C0C0; stroke-width: 1.0;" x1="96" x2="96" y1="0" y2="80"/><text fill="#000000" font-family="Serif" font-size="10" lengthAdjust="spacingAndGlyphs" textLength="6" x="117" y="9.2822">8</text><line style="stroke: #C0C0C0; stroke-width: 1.0;" x1="112" x2="112" y1="0" y2="80"/><text fill="#000000" font-family="Serif" font-size="10" lengthAdjust="spacingAndGlyphs" textLength="6" x="133" y="9.2822">9</text><line style="stroke: #C0C0C0; stroke-width: 1.0;" x1="128" x2="128" y1="0" y2="80"/><text fill="#000000" font-family="Serif" font-size="10" lengthAdjust="spacingAndGlyphs" textLength="12" x="146" y="9.2822">10</text><line style="stroke: #C0C0C0; stroke-width: 1.0;" x1="144" x2="144" y1="0" y2="80"/><text fill="#000000" font-family="Serif" font-size="10" lengthAdjust="spacingAndGlyphs" textLength="12" x="162" y="9.2822">11</text><line style="stroke: #C0C0C0; stroke-width: 1.0;" x1="160" x2="160" y1="0" y2="80"/><text fill="#000000" font-family="Serif" font-size="10" lengthAdjust="spacingAndGlyphs" textLength="12" x="178" y="9.2822">12</text><line style="stroke: #C0C0C0; stroke-width: 1.0;" x1="176" x2="176" y1="0" y2="80"/><text fill="#000000" font-family="Serif" font-size="10" lengthAdjust="spacingAndGlyphs" textLength="12" x="194" y="9.2822">13</text><line style="stroke: #C0C0C0; stroke-width: 1.0;" x1="192" x2="192" y1="0" y2="80"/><text fill="#000000" font-family="Serif" font-size="10" lengthAdjust="spacingAndGlyphs" textLength="12" x="210" y="9.2822">14</text><line style="stroke: #C0C0C0; stroke-width: 1.0;" x1="208" x2="208" y1="0" y2="80"/><text fill="#000000" font-family="Serif" font-size="10" lengthAdjust="spacingAndGlyphs" textLength="12" x="226" y="9.2822">15</text><line style="stroke: #C0C0C0; stroke-width: 1.0;" x1="224" x2="224" y1="0" y2="80"/><text fill="#000000" font-family="Serif" font-size="10" lengthAdjust="spacingAndGlyphs" textLength="12" x="242" y="9.2822">16</text><line style="stroke: #C0C0C0; stroke-width: 1.0;" x1="240" x2="240" y1="0" y2="80"/><line style="stroke: #C0C0C0; stroke-width: 1.0;" x1="256" x2="256" y1="0" y2="80"/><line style="stroke: #C0C0C0; stroke-width: 1.0;" x1="0" x2="256" y1="0" y2="0"/><line style="stroke: #C0C0C0; stroke-width: 1.0;" x1="0" x2="256" y1="13" y2="13"/><rect fill="#FFFFFF" height="12" rx="4" ry="4" style="stroke: #FFFFFF; stroke-width: 1.0;" width="76" x="2" y="18"/><rect fill="#84BE84" height="12" style="stroke: none; stroke-width: 1.0;" width="16" x="0" y="18"/><rect fill="#84BE84" height="12" style="stroke: none; stroke-width: 1.0;" width="16" x="16" y="18"/><rect fill="#84BE84" height="12" style="stroke: none; stroke-width: 1.0;" width="16" x="32" y="18"/><rect fill="#84BE84" height="12" style="stroke: none; stroke-width: 1.0;" width="16" x="48" y="18"/><rect fill="#84BE84" height="12" style="stroke: none; stroke-width: 1.0;" width="16" x="64" y="18"/><rect fill="none" height="12" rx="4" ry="4" style="stroke: #0000FF; stroke-width: 1.0;" width="76" x="2" y="18"/><text fill="#000000" font-family="Serif" font-size="11" lengthAdjust="spacingAndGlyphs" textLength="37" x="16" y="26.2104">task A</text><rect fill="#FFFFFF" height="12" rx="4" ry="4" style="stroke: #FFFFFF; stroke-width: 1.0;" width="108" x="82" y="34"/><rect fill="#84BE84" height="12" style="stroke: none; stroke-width: 1.0;" width="16" x="80" y="34"/><rect fill="#84BE84" height="12" style="stroke: none; stroke-width: 1.0;" width="16" x="96" y="34"/><rect fill="#84BE84" height="12" style="stroke: none; stroke-width: 1.0;" width="16" x="112" y="34"/><rect fill="#84BE84" height="12" style="stroke: none; stroke-width: 1.0;" width="16" x="128" y="34"/><rect fill="#84BE84" height="12" style="stroke: none; stroke-width: 1.0;" width="16" x="144" y="34"/><rect fill="#84BE84" height="12" style="stroke: none; stroke-width: 1.0;" width="16" x="160" y="34"/><rect fill="#84BE84" height="12" style="stroke: none; stroke-width: 1.0;" width="16" x="176" y="34"/><rect fill="none" height="12" rx="4" ry="4" style="stroke: #0000FF; stroke-width: 1.0;" width="108" x="82" y="34"/><text fill="#000000" font-family="Serif" font-size="11" lengthAdjust="spacingAndGlyphs" textLength="37" x="96" y="42.2104">task B</text><rect fill="#FFFFFF" height="12" rx="4" ry="4" style="stroke: #FFFFFF; stroke-width: 1.0;" width="108" x="82" y="50"/><rect fill="#84BE84" height="12" style="stroke: none; stroke-width: 1.0;" width="16" x="80" y="50"/><rect fill="#84BE84" height="12" style="stroke: none; stroke-width: 1.0;" width="16" x="96" y="50"/><rect fill="#84BE84" height="12" style="stroke: none; stroke-width: 1.0;" width="16" x="112" y="50"/><rect fill="#84BE84" height="12" style="stroke: none; stroke-width: 1.0;" width="16" x="128" y="50"/><rect fill="#84BE84" height="12" style="stroke: none; stroke-width: 1.0;" width="16" x="144" y="50"/><rect fill="#84BE84" height="12" style="stroke: none; stroke-width: 1.0;" width="16" x="160" y="50"/><rect fill="#84BE84" height="12" style="stroke: none; stroke-width: 1.0;" width="16" x="176" y="50"/><rect fill="none" height="12" rx="4" ry="4" style="stroke: #0000FF; stroke-width: 1.0;" width="108" x="82" y="50"/><text fill="#000000" font-family="Serif" font-size="11" lengthAdjust="spacingAndGlyphs" textLength="37" x="96" y="58.2104">task C</text><rect fill="#FFFFFF" height="12" rx="4" ry="4" style="stroke: #FFFFFF; stroke-width: 1.0;" width="60" x="194" y="66"/><rect fill="#84BE84" height="12" style="stroke: none; stroke-width: 1.0;" width="16" x="192" y="66"/><rect fill="#84BE84" height="12" style="stroke: none; stroke-width: 1.0;" width="16" x="208" y="66"/><rect fill="#84BE84" height="12" style="stroke: none; stroke-width: 1.0;" width="16" x="224" y="66"/><rect fill="#84BE84" height="12" style="stroke: none; stroke-width: 1.0;" width="16" x="240" y="66"/><rect fill="none" height="12" rx="4" ry="4" style="stroke: #0000FF; stroke-width: 1.0;" width="60" x="194" y="66"/><text fill="#000000" font-family="Serif" font-size="11" lengthAdjust="spacingAndGlyphs" textLength="38" x="208" y="74.2104">task D</text><line style="stroke: #CD0A0A; stroke-width: 1.5;" x1="72" x2="72" y1="32" y2="40"/><line style="stroke: #CD0A0A; stroke-width: 1.5;" x1="72" x2="80" y1="40" y2="40"/><polygon fill="#CD0A0A" points="76,36,76,40,76,44,80,40" style="stroke: #CD0A0A; stroke-width: 1.5;"/><line style="stroke: #CD0A0A; stroke-width: 1.5;" x1="72" x2="72" y1="32" y2="56"/><line style="stroke: #CD0A0A; stroke-width: 1.5;" x1="72" x2="80" y1="56" y2="56"/><polygon fill="#CD0A0A" points="76,52,76,56,76,60,80,56" style="stroke: #CD0A0A; stroke-width: 1.5;"/><line style="stroke: #CD0A0A; stroke-width: 1.5;" x1="184" x2="184" y1="48" y2="72"/><line style="stroke: #CD0A0A; stroke-width: 1.5;" x1="184" x2="192" y1="72" y2="72"/><polygon fill="#CD0A0A" points="188,68,188,72,188,76,192,72" style="stroke: #CD0A0A; stroke-width: 1.5;"/><line style="stroke: #CD0A0A; stroke-width: 1.5;" x1="184" x2="184" y1="64" y2="72"/><line style="stroke: #CD0A0A; stroke-width: 1.5;" x1="184" x2="192" y1="72" y2="72"/><polygon fill="#CD0A0A" points="188,68,188,72,188,76,192,72" style="stroke: #CD0A0A; stroke-width: 1.5;"/><!--
--></g></svg>